<svg width="45" height="45" viewBox="0 0 45 45" fill="none" xmlns="http://www.w3.org/2000/svg">
<g opacity="0.5">
<path d="M38.996 12.0618C39.7388 11.3196 40.0277 11.2371 40.0793 11.2886C40.8531 10.0515 42.8647 12.5258 43.6383 13.7629C44.412 15 44.8764 16.3918 44.8763 19.1753C44.8763 21.5759 45.1546 26.1514 44.8763 27.6804C44.5668 29.3814 43.1742 31.701 42.8647 32.4742C42.5552 33.2474 41.7815 33.4021 41.0077 34.0206C40.234 34.6392 39.4603 33.866 38.996 33.4021C38.5318 32.9381 37.7581 30.9278 37.2938 30.1546C36.9224 29.5361 36.5201 29.3814 36.3653 29.3814C35.4369 28.6082 34.9726 28.1443 34.5084 26.5979C34.2861 25.8573 34.0441 24.8969 34.0441 22.5773C34.0441 20.2577 34.5084 18.866 34.9726 17.7835C35.4369 16.701 36.6748 15.9278 37.2938 15.3093C37.9128 14.6907 37.2938 14.6907 37.7581 13.9175C38.2223 13.1443 38.0676 12.9897 38.996 12.0618Z" fill="#B7B7B7"/>
<path d="M30.7945 13.9175C31.4135 13.6701 33.1157 13.6082 33.8894 13.6082C33.8894 14.1753 33.8275 15.3711 33.5799 15.6186C33.2704 15.9278 32.1872 17.3196 31.723 18.7113C31.2587 20.1031 31.2587 21.6495 31.2587 22.5773C31.2587 23.5052 31.4135 25.0515 31.723 26.5979C32.0325 28.1443 33.5799 28.4536 33.5799 29.6907C33.5799 30.9278 33.8894 31.5464 33.2704 31.5464C32.6514 31.5464 32.1872 31.3918 31.723 31.5464C31.2587 31.701 28.1638 30.4639 27.2353 30.1546C26.3068 29.8454 24.2951 28.1443 23.3667 27.9897C22.4382 27.8351 20.736 25.0515 20.2717 24.433C19.8075 23.8144 20.117 22.1134 20.2717 21.3402C20.4265 20.567 21.8192 18.5567 22.4382 18.0928C23.0572 17.6289 25.8426 15.6186 26.4616 15.3093C27.0806 15 30.0208 14.2268 30.7945 13.9175Z" fill="#B7B7B7"/>
<path d="M15.4746 22.5773L13.6177 20.567L13.1534 20.567L7.27307 21.3402L3.71391 22.268L4.0234 23.6598L13.1534 24.8969L15.4746 22.5773Z" fill="#B7B7B7"/>
<path d="M3.24967 23.9691L19.0338 31.5464C17.6411 34.433 14.7009 40.5464 14.0819 41.9072C13.4629 43.268 10.5227 44.1237 9.13002 44.3814L1.84768e-06 45L3.8147e-06 -1.96701e-06C2.94018 0.412369 9.16097 1.23711 10.5227 1.23711C11.8845 1.23711 13.9787 3.60825 14.8556 4.79381L19.0338 13.9175L3.24967 21.3402L3.24967 23.9691Z" fill="#B7B7B7"/>
</g>
</svg>
