<svg width="45" height="45" viewBox="0 0 45 45" fill="none" xmlns="http://www.w3.org/2000/svg">
<g opacity="0.5">
<mask id="mask0_3865_889" style="mask-type:alpha" maskUnits="userSpaceOnUse" x="0" y="0" width="45" height="45">
<rect y="45" width="45" height="45" transform="rotate(-90 0 45)" fill="#D9D9D9"/>
</mask>
<g mask="url(#mask0_3865_889)">
<path d="M32.3393 26.7407L29.5431 23.305C26.9726 20.1983 24.9855 18.13 23.5819 17.1C22.1783 16.07 20.6989 15.5551 19.1436 15.5551C18.448 15.5551 17.7897 15.688 17.1689 15.9539C16.548 16.2198 15.9177 16.585 15.278 17.0496L15.278 13.9363C15.278 13.0276 15.5648 12.2536 16.1382 11.6144C16.7117 10.9751 17.406 10.6555 18.2212 10.6555L32.3393 10.6555L32.3393 26.7407ZM32.3393 44.5833L18.2212 44.5833C17.406 44.5833 16.7117 44.2702 16.1382 43.644C15.5648 43.0178 15.278 42.2373 15.278 41.3025L15.278 38.1658C15.8822 38.6736 16.5072 39.0535 17.1531 39.3056C17.799 39.5577 18.4625 39.6838 19.1436 39.6838C20.7371 39.6838 22.2032 39.1865 23.5419 38.1919C24.8806 37.1974 26.8811 35.0957 29.5431 31.887L32.3393 28.4747L32.3393 44.5833ZM13.9179 15.323C13.9179 16.8078 13.4592 18.0655 12.5417 19.096C11.6241 20.1266 10.4918 20.6419 9.1446 20.6419C7.82332 20.6419 6.69744 20.126 5.76697 19.0942C4.83649 18.0624 4.37125 16.8042 4.37125 15.3196C4.37125 13.8464 4.83649 12.5915 5.76697 11.5549C6.69744 10.5183 7.82332 10 9.1446 10C10.4918 10 11.6241 10.5189 12.5417 11.5565C13.4592 12.5941 13.9179 13.8496 13.9179 15.323ZM12.0328 27.6194C12.0328 29.342 11.4998 30.7975 10.4336 31.986C9.36748 33.1744 8.06175 33.7686 6.51641 33.7686C4.99684 33.7686 3.69754 33.1744 2.61852 31.986C1.53951 30.7975 1 29.342 1 27.6194C1 25.9255 1.53951 24.4772 2.61852 23.2744C3.69754 22.0716 4.99684 21.4702 6.51641 21.4702C8.06175 21.4702 9.36748 22.0716 10.4336 23.2744C11.4998 24.4772 12.0328 25.9255 12.0328 27.6194ZM19.1528 36.5668C20.2564 36.5668 21.5013 35.9564 22.8875 34.7356C24.2738 33.5147 26.4126 31.1349 29.304 27.596C26.4621 24.128 24.345 21.7736 22.9525 20.533C21.5601 19.2923 20.291 18.672 19.1452 18.672C18.0141 18.672 17.0469 19.1028 16.2438 19.9643C15.4406 20.8258 15.039 21.8897 15.039 23.156C15.039 23.864 15.1709 24.513 15.4348 25.103C15.6986 25.693 16.02 26.2209 16.3991 26.6867L17.1939 27.596L16.3991 28.5702C16.0308 29.0515 15.7121 29.5989 15.4428 30.2124C15.1736 30.8258 15.039 31.4492 15.039 32.0826C15.039 33.3518 15.4434 34.4165 16.2521 35.2766C17.0609 36.1367 18.0277 36.5668 19.1528 36.5668ZM13.9179 39.9199C13.9179 41.4047 13.4592 42.6624 12.5417 43.6929C11.6241 44.7235 10.4918 45.2388 9.1446 45.2388C7.82332 45.2388 6.69744 44.7229 5.76696 43.6911C4.83648 42.6592 4.37125 41.401 4.37125 39.9165C4.37125 38.4433 4.83648 37.1884 5.76697 36.1518C6.69744 35.1152 7.82332 34.5969 9.1446 34.5969C10.4918 34.5969 11.6241 35.1157 12.5417 36.1533C13.4592 37.191 13.9179 38.4465 13.9179 39.9199Z" fill="#B7B7B7"/>
</g>
</g>
</svg>
