<svg width="24" height="24" viewBox="0 0 24 24" fill="none" xmlns="http://www.w3.org/2000/svg">
<path opacity="0.5" d="M20.936 7.564C20.9284 6.86772 20.8009 6.17796 20.559 5.525C20.3832 5.04791 20.1027 4.61632 19.738 4.262C19.3836 3.89765 18.952 3.61743 18.475 3.442C17.8219 3.20043 17.1323 3.07258 16.436 3.064C15.278 3.012 14.931 3 12 3C9.07 3 8.721 3.01 7.564 3.064C6.86772 3.07159 6.17796 3.19912 5.525 3.441C5.04776 3.61648 4.6161 3.89707 4.262 4.262C3.89823 4.61724 3.61812 5.04902 3.442 5.526C3.20058 6.17877 3.07274 6.86807 3.064 7.564C3.012 8.723 3 9.07 3 12.001C3 14.932 3.01 15.28 3.064 16.437C3.07191 17.1333 3.19978 17.8231 3.442 18.476C3.617 18.952 3.898 19.384 4.263 19.737C4.61743 20.1018 5.04897 20.3826 5.526 20.559C6.178 20.801 6.868 20.929 7.564 20.936C8.721 20.99 9.07 21 12 21C14.93 21 15.28 20.99 16.436 20.936C17.1323 20.9284 17.822 20.8009 18.475 20.559C18.9485 20.3765 19.3786 20.0969 19.7375 19.7381C20.0964 19.3794 20.3763 18.9494 20.559 18.476C20.8004 17.8226 20.9279 17.1326 20.936 16.436C20.99 15.28 21 14.932 21 12C21 9.068 20.99 8.722 20.936 7.564Z" fill="white"/>
<path d="M17.793 7.6182C17.6695 7.29774 17.4802 7.00672 17.2373 6.76387C16.9945 6.52102 16.7035 6.33173 16.383 6.2082C15.941 6.0448 15.4742 5.95821 15.003 5.9522C14.219 5.9162 13.983 5.9082 12 5.9082C10.017 5.9082 9.78201 5.9162 9.00001 5.9522C8.52877 5.95726 8.06194 6.04352 7.62001 6.2072C6.97101 6.4572 6.46001 6.9692 6.21001 7.6172C6.04601 8.0602 5.96001 8.5272 5.95401 8.9972C5.91801 9.7812 5.91101 10.0162 5.91101 12.0002C5.91101 13.9842 5.91801 14.2202 5.95401 15.0032C5.95901 15.4742 6.04601 15.9412 6.20901 16.3832C6.33259 16.7036 6.5219 16.9946 6.76474 17.2375C7.00758 17.4803 7.29858 17.6696 7.61901 17.7932C8.06201 17.9562 8.52901 18.0432 8.99901 18.0482C9.78201 18.0842 10.017 18.0912 12.001 18.0912C13.985 18.0912 14.221 18.0842 15.004 18.0482C15.4753 18.0427 15.9421 17.9561 16.384 17.7922C16.7044 17.6686 16.9954 17.4793 17.2383 17.2365C17.4811 16.9936 17.6704 16.7026 17.794 16.3822C17.958 15.9412 18.044 15.4742 18.05 15.0022C18.086 14.2192 18.093 13.9842 18.093 12.0002C18.093 10.0162 18.086 9.7812 18.05 8.9982C18.0446 8.52691 17.958 8.06009 17.794 7.6182H17.793ZM12 15.8152C11.499 15.8152 11.0029 15.7165 10.5401 15.5248C10.0772 15.3331 9.65665 15.0521 9.3024 14.6978C8.94814 14.3436 8.66713 13.923 8.47541 13.4601C8.28369 12.9973 8.18501 12.5012 8.18501 12.0002C8.18501 11.4992 8.28369 11.0031 8.47541 10.5403C8.66713 10.0774 8.94814 9.65685 9.3024 9.30259C9.65665 8.94833 10.0772 8.66732 10.5401 8.4756C11.0029 8.28388 11.499 8.1852 12 8.1852C13.0118 8.1852 13.9822 8.58714 14.6976 9.30259C15.4131 10.018 15.815 10.9884 15.815 12.0002C15.815 13.012 15.4131 13.9824 14.6976 14.6978C13.9822 15.4133 13.0118 15.8152 12 15.8152ZM15.966 8.9252C15.7347 8.91746 15.5155 8.82014 15.3547 8.65379C15.1938 8.48745 15.1039 8.26511 15.1039 8.0337C15.1039 7.8023 15.1938 7.57995 15.3547 7.41361C15.5155 7.24727 15.7347 7.14995 15.966 7.1422H15.967C16.1983 7.14927 16.4178 7.24597 16.5792 7.41186C16.7405 7.57776 16.8311 7.79987 16.8318 8.03129C16.8324 8.26271 16.7431 8.48532 16.5827 8.65211C16.4222 8.81891 16.2033 8.91683 15.972 8.9252H15.966Z" fill="white"/>
<path d="M12 9.52344C11.51 9.52344 11.0311 9.66871 10.6238 9.94089C10.2165 10.2131 9.89898 10.5999 9.7115 11.0525C9.52402 11.5051 9.47497 12.0032 9.57055 12.4837C9.66612 12.9642 9.90203 13.4055 10.2484 13.7519C10.5949 14.0984 11.0362 14.3343 11.5167 14.4298C11.9972 14.5254 12.4952 14.4764 12.9479 14.2889C13.4005 14.1014 13.7873 13.7839 14.0595 13.3766C14.3317 12.9692 14.477 12.4903 14.477 12.0004C14.477 11.3437 14.2161 10.7138 13.7518 10.2493C13.2875 9.78479 12.6577 9.5237 12.001 9.52344H12Z" fill="white"/>
<path d="M21.93 7.07C21.921 6.29682 21.7789 5.53096 21.51 4.806C21.3144 4.27596 21.0024 3.79654 20.597 3.403C20.2035 2.99754 19.7241 2.68554 19.194 2.49C18.4685 2.22165 17.7024 2.0796 16.929 2.07C15.642 2.014 15.257 2 12 2C8.745 2 8.358 2.012 7.072 2.07C6.29853 2.07938 5.53241 2.22144 4.807 2.49C4.27667 2.68504 3.79712 2.99711 3.404 3.403C2.99932 3.79712 2.68745 4.27637 2.491 4.806C2.22269 5.53148 2.08064 6.29756 2.071 7.071C2.014 8.358 2 8.744 2 12.001C2 15.258 2.012 15.644 2.071 16.93C2.081 17.703 2.222 18.47 2.491 19.195C2.686 19.725 2.998 20.205 3.403 20.597C3.79677 21.0021 4.27613 21.314 4.806 21.51C5.53126 21.7791 6.29748 21.9212 7.071 21.93C8.357 21.989 8.744 22 12 22C15.257 22 15.643 21.988 16.93 21.93C17.7032 21.9211 18.4691 21.779 19.194 21.51C19.7202 21.3072 20.1982 20.9964 20.5971 20.5977C20.9959 20.199 21.3069 19.7212 21.51 19.195C21.778 18.469 21.92 17.703 21.93 16.93C21.988 15.643 22 15.256 22 12C22 8.743 21.988 8.358 21.93 7.07ZM19.385 15.063C19.3732 15.6796 19.2565 16.2896 19.04 16.867C18.8491 17.3605 18.5572 17.8088 18.183 18.183C17.8088 18.5572 17.3605 18.8491 16.867 19.04C16.2898 19.2561 15.6802 19.3728 15.064 19.385C14.271 19.422 14.018 19.43 12 19.43C9.982 19.43 9.73 19.421 8.937 19.385C8.32082 19.3727 7.71119 19.2561 7.134 19.04C6.64024 18.8492 6.19179 18.5574 5.81741 18.1832C5.44303 17.809 5.15099 17.3607 4.96 16.867C4.74377 16.2895 4.62712 15.6795 4.615 15.063C4.58 14.271 4.57 14.018 4.57 12C4.57 9.982 4.579 9.729 4.615 8.937C4.62712 8.32048 4.74377 7.71049 4.96 7.133C5.15093 6.6393 5.44296 6.19095 5.81735 5.81674C6.19173 5.44253 6.64021 5.15071 7.134 4.96C7.71117 4.74388 8.32082 4.62723 8.937 4.615C9.73 4.578 9.984 4.57 12.001 4.57C14.018 4.57 14.271 4.579 15.064 4.615C15.6805 4.62696 16.2906 4.74362 16.868 4.96C17.3614 5.15105 17.8094 5.44301 18.1834 5.8172C18.5574 6.19139 18.8492 6.63955 19.04 7.133C19.257 7.711 19.373 8.32 19.385 8.937C19.421 9.729 19.43 9.982 19.43 12C19.43 14.018 19.421 14.27 19.385 15.063Z" fill="white"/>
</svg>
