<svg width="54" height="71" viewBox="0 0 54 71" fill="none" xmlns="http://www.w3.org/2000/svg">
<path d="M19.25 39.6665L22.1667 30.1665L14.5 23.9998H24L27 14.6665L30 23.9998H39.5L31.75 30.1665L34.6667 39.6665L27 33.7498L19.25 39.6665ZM7.00004 70.6665V44.9165C4.88893 42.5832 3.25004 39.9165 2.08337 36.9165C0.916708 33.9165 0.333374 30.7221 0.333374 27.3332C0.333374 19.8887 2.91671 13.5832 8.08337 8.4165C13.25 3.24984 19.5556 0.666504 27 0.666504C34.4445 0.666504 40.75 3.24984 45.9167 8.4165C51.0834 13.5832 53.6667 19.8887 53.6667 27.3332C53.6667 30.7221 53.0834 33.9165 51.9167 36.9165C50.75 39.9165 49.1112 42.5832 47 44.9165V70.6665L27 63.9998L7.00004 70.6665ZM27 47.3332C32.5556 47.3332 37.2778 45.3887 41.1667 41.4998C45.0556 37.6109 47 32.8887 47 27.3332C47 21.7776 45.0556 17.0554 41.1667 13.1665C37.2778 9.27761 32.5556 7.33317 27 7.33317C21.4445 7.33317 16.7223 9.27761 12.8334 13.1665C8.94449 17.0554 7.00004 21.7776 7.00004 27.3332C7.00004 32.8887 8.94449 37.6109 12.8334 41.4998C16.7223 45.3887 21.4445 47.3332 27 47.3332ZM13.6667 60.7498L27 57.3332L40.3334 60.7498V50.4165C38.3889 51.5276 36.2917 52.4026 34.0417 53.0415C31.7917 53.6804 29.4445 53.9998 27 53.9998C24.5556 53.9998 22.2084 53.6804 19.9584 53.0415C17.7084 52.4026 15.6112 51.5276 13.6667 50.4165V60.7498Z" fill="#E02828"/>
</svg>
