<svg width="54" height="68" viewBox="0 0 54 68" fill="none" xmlns="http://www.w3.org/2000/svg">
<path d="M23.5 45.8337L42.3334 27.0003L37.5834 22.2503L23.5 36.3337L16.5 29.3337L11.75 34.0837L23.5 45.8337ZM27 67.3337C19.2778 65.3892 12.9028 60.9587 7.87504 54.042C2.84726 47.1253 0.333374 39.4448 0.333374 31.0003V10.667L27 0.666992L53.6667 10.667V31.0003C53.6667 39.4448 51.1528 47.1253 46.125 54.042C41.0973 60.9587 34.7223 65.3892 27 67.3337ZM27 60.3337C32.7778 58.5003 37.5556 54.8337 41.3334 49.3337C45.1112 43.8337 47 37.7225 47 31.0003V15.2503L27 7.75033L7.00004 15.2503V31.0003C7.00004 37.7225 8.88893 43.8337 12.6667 49.3337C16.4445 54.8337 21.2223 58.5003 27 60.3337Z" fill="#E02828"/>
</svg>
