<svg width="80" height="80" viewBox="0 0 80 80" fill="none" xmlns="http://www.w3.org/2000/svg">
<mask id="mask0_3878_998" style="mask-type:alpha" maskUnits="userSpaceOnUse" x="0" y="0" width="80" height="80">
<rect width="80" height="80" fill="#D9D9D9"/>
</mask>
<g mask="url(#mask0_3878_998)">
<path d="M38.75 3.33545C43.8056 3.33545 48.125 5.09934 51.7084 8.62712C55.2917 12.1549 57.0834 16.4466 57.0834 21.5021C57.0834 24.1688 56.4862 26.7938 55.2917 29.3771C54.0973 31.9604 52.3056 34.1966 49.9167 36.0854H47.0834V29.6688C48.0834 28.5577 48.8889 27.3216 49.5001 25.9604C50.1112 24.5993 50.4167 23.1132 50.4167 21.5021C50.4167 18.3355 49.2639 15.6271 46.9584 13.3771C44.6528 11.1271 41.9167 10.0021 38.75 10.0021C35.4723 10.0021 32.7084 11.1271 30.4584 13.3771C28.2084 15.6271 27.0834 18.3355 27.0834 21.5021C27.0834 23.1132 27.375 24.641 27.9584 26.0854C28.5417 27.5299 29.3612 28.7799 30.4167 29.8354V38.0021C27.4167 36.4466 25 34.2243 23.1667 31.3355C21.3334 28.4466 20.4167 25.1688 20.4167 21.5021C20.4167 16.4466 22.1945 12.1549 25.75 8.62712C29.3056 5.09934 33.6389 3.33545 38.75 3.33545ZM35.5834 73.3354C34.6389 73.3354 33.75 73.1549 32.9167 72.7938C32.0834 72.4327 31.3612 71.9466 30.75 71.3354L13.5834 54.1688L18.25 49.3354C19.0278 48.5577 19.9028 47.9604 20.875 47.5438C21.8473 47.1271 22.8612 47.0577 23.9167 47.3354L30.4167 48.8354V21.6688C30.4167 19.3354 31.2223 17.3632 32.8334 15.7521C34.4445 14.141 36.4167 13.3354 38.75 13.3354C41.0834 13.3354 43.0556 14.141 44.6667 15.7521C46.2778 17.3632 47.0834 19.3354 47.0834 21.6688V36.0021H49.25C49.5278 36.0021 49.7917 36.0438 50.0417 36.1271C50.2917 36.2104 50.5278 36.3354 50.7501 36.5021L63.0834 42.5021C64.4167 43.1132 65.4028 44.0993 66.0417 45.4604C66.6806 46.8216 66.8612 48.2243 66.5834 49.6688L63.5834 67.8354C63.3056 69.4466 62.5278 70.766 61.2501 71.7938C59.9723 72.8216 58.5278 73.3354 56.9167 73.3354H35.5834ZM35.5834 66.6688H56.9167L60.0834 48.5021L46.25 41.6688H40.4167V21.6688C40.4167 21.1688 40.2639 20.766 39.9584 20.4604C39.6528 20.1549 39.25 20.0021 38.75 20.0021C38.25 20.0021 37.8473 20.1549 37.5417 20.4604C37.2362 20.766 37.0834 21.1688 37.0834 21.6688V57.0021L22.9167 54.0021L35.5834 66.6688Z" fill="#E02828"/>
</g>
</svg>
