<svg width="74" height="74" viewBox="0 0 74 74" fill="none" xmlns="http://www.w3.org/2000/svg">
<path d="M28.6667 51.999V21.999L52 36.999L28.6667 51.999ZM37 73.6657C31 73.6657 25.375 72.2907 20.125 69.5407C14.875 66.7907 10.5 62.9435 7.00004 57.999V66.999H0.333374V46.999H20.3334V53.6657H12.1667C15 57.8324 18.5973 61.0963 22.9584 63.4574C27.3195 65.8185 32 66.999 37 66.999C43.3889 66.999 49.1806 65.1657 54.375 61.499C59.5695 57.8324 63.2223 52.9712 65.3334 46.9157L71.8334 48.4157C69.3334 55.9712 64.8889 62.0685 58.5 66.7074C52.1112 71.3463 44.9445 73.6657 37 73.6657ZM0.500041 33.6657C0.88893 29.9435 1.77782 26.374 3.16671 22.9574C4.5556 19.5407 6.47226 16.3879 8.91671 13.499L13.6667 18.249C11.8889 20.5268 10.4445 22.9574 9.33337 25.5407C8.22226 28.124 7.52782 30.8324 7.25004 33.6657H0.500041ZM18.3334 13.5824L13.5834 8.83236C16.5278 6.38791 19.6945 4.45736 23.0834 3.04069C26.4723 1.62402 30 0.776801 33.6667 0.499023V7.16569C30.8334 7.44347 28.1389 8.13791 25.5834 9.24902C23.0278 10.3601 20.6112 11.8046 18.3334 13.5824ZM55.75 13.5824C53.4723 11.8046 51.0417 10.3601 48.4584 9.24902C45.875 8.13791 43.1667 7.44347 40.3334 7.16569V0.499023C44.0556 0.832357 47.625 1.69347 51.0417 3.08236C54.4584 4.47125 57.6112 6.38791 60.5 8.83236L55.75 13.5824ZM66.8334 33.6657C66.5556 30.8324 65.8612 28.124 64.75 25.5407C63.6389 22.9574 62.1945 20.5268 60.4167 18.249L65.1667 13.499C67.6112 16.3879 69.5278 19.5407 70.9167 22.9574C72.3056 26.374 73.1667 29.9435 73.5 33.6657H66.8334Z" fill="#E02828"/>
</svg>
